<?xml version="1.0" standalone="no"?>
<!DOCTYPE svg PUBLIC "-//W3C//DTD SVG 20010904//EN"
 "http://www.w3.org/TR/2001/REC-SVG-20010904/DTD/svg10.dtd">
<svg version="1.0" xmlns="http://www.w3.org/2000/svg"
 width="200.000000pt" height="200.000000pt" viewBox="0 0 200.000000 200.000000"
 preserveAspectRatio="xMidYMid meet">
<metadata>
Created by potrace 1.10, written by Peter Selinger 2001-2011
</metadata>
<g transform="translate(0.000000,200.000000) scale(0.100000,-0.100000)"
fill="#000000" stroke="none">
<path d="M45 1168 c-31 -28 -47 -87 -38 -147 7 -50 36 -86 79 -97 37 -9 98 23
102 54 4 29 -1 28 -36 -8 -36 -35 -50 -37 -85 -9 -31 24 -50 83 -41 128 12 59
82 107 98 66 7 -19 36 -20 36 0 0 38 -76 46 -115 13z"/>
<path d="M567 1183 c-4 -3 -7 -12 -7 -20 0 -15 26 -18 34 -4 7 11 -18 33 -27
24z"/>
<path d="M735 1181 c-6 -10 1 -15 18 -12 4 0 7 -16 7 -36 0 -29 -3 -34 -12
-25 -7 7 -27 12 -45 12 -39 0 -62 -30 -69 -87 -6 -46 12 -84 49 -101 24 -12
32 -11 53 2 13 9 24 12 24 6 0 -5 11 -10 25 -10 14 0 25 5 25 10 0 6 -6 10
-14 10 -10 0 -13 25 -12 118 1 113 0 117 -21 120 -11 2 -24 -2 -28 -7z m15
-100 c5 -11 10 -40 10 -65 0 -38 -4 -48 -25 -62 -23 -15 -27 -15 -50 0 -21 14
-25 24 -25 62 0 61 14 84 50 84 19 0 33 -7 40 -19z"/>
<path d="M964 1156 c-32 -32 -34 -38 -34 -100 0 -58 3 -69 28 -96 17 -19 40
-33 63 -36 30 -5 42 -1 69 23 20 18 30 35 26 42 -5 8 -16 2 -36 -19 -33 -35
-58 -38 -89 -9 -42 40 -53 106 -26 159 23 44 85 70 85 35 0 -16 25 -21 35 -6
9 16 -25 41 -57 41 -21 0 -40 -10 -64 -34z"/>
<path d="M1515 1181 c-3 -5 -1 -12 5 -16 15 -9 13 -208 -2 -223 -9 -9 -5 -12
20 -12 18 0 32 5 32 10 0 6 -3 10 -7 10 -10 0 -8 73 1 89 13 20 24 12 50 -35
20 -36 24 -50 15 -60 -9 -11 -5 -14 25 -14 39 0 44 6 22 24 -8 6 -28 34 -45
63 l-30 52 24 15 c14 9 29 16 35 16 5 0 10 5 10 10 0 6 -16 10 -36 10 -28 0
-35 -3 -31 -15 4 -8 -5 -22 -21 -34 l-28 -19 1 51 c0 31 5 55 13 60 7 5 10 12
7 18 -8 12 -52 12 -60 0z"/>
<path d="M1721 1180 c-16 -9 -6 -30 15 -30 15 0 20 25 6 34 -4 2 -14 1 -21 -4z"/>
<path d="M484 1128 c-4 -6 1 -17 12 -25 13 -9 18 -23 15 -41 -5 -39 -38 -100
-61 -112 -19 -10 -20 -8 -20 70 0 47 4 80 10 80 6 0 10 5 10 10 0 6 -13 10
-30 10 -16 0 -30 -4 -30 -10 0 -5 5 -10 10 -10 6 0 10 -37 10 -90 0 -102 6
-109 61 -63 38 32 59 78 59 131 0 49 -28 80 -46 50z"/>
<path d="M254 1116 c-38 -17 -59 -63 -51 -113 9 -52 38 -78 88 -78 56 0 89 38
89 100 0 75 -60 119 -126 91z m89 -38 c43 -50 -1 -148 -61 -133 -48 11 -73 65
-52 114 21 52 76 61 113 19z"/>
<path d="M1191 1121 c-13 -3 -33 -19 -45 -34 -58 -78 19 -192 105 -157 78 33
77 161 -2 189 -18 6 -32 11 -33 10 -1 -1 -12 -4 -25 -8z m79 -49 c34 -42 19
-102 -30 -122 -47 -20 -90 16 -90 75 0 77 74 106 120 47z"/>
<path d="M1390 1123 c-28 -10 -59 -45 -65 -74 -16 -70 42 -138 104 -124 73 16
104 118 51 169 -26 25 -65 37 -90 29z m75 -46 c25 -36 19 -92 -11 -116 -33
-26 -45 -26 -77 -1 -31 25 -41 63 -25 98 25 51 84 61 113 19z"/>
<path d="M1890 1122 c-8 -2 -23 -11 -32 -20 -16 -14 -18 -13 -18 1 0 11 -8 17
-25 17 -14 0 -25 -4 -25 -10 0 -5 7 -10 15 -10 22 0 22 -145 -1 -154 -25 -10
-7 -23 26 -18 27 4 44 22 20 22 -16 0 -12 103 5 127 19 27 52 35 70 16 22 -22
21 -132 -2 -149 -16 -12 -14 -13 20 -14 20 0 37 5 37 10 0 6 -4 10 -10 10 -6
0 -10 29 -10 68 0 83 -24 119 -70 104z"/>
<path d="M550 1110 c0 -5 5 -10 10 -10 6 0 10 -32 10 -75 0 -43 -4 -75 -10
-75 -5 0 -10 -4 -10 -10 0 -5 17 -10 38 -10 33 1 35 2 20 14 -15 11 -18 29
-18 95 0 74 -2 81 -20 81 -11 0 -20 -4 -20 -10z"/>
<path d="M1700 1110 c0 -5 7 -10 15 -10 24 0 21 -138 -2 -156 -16 -12 -14 -13
20 -14 20 0 37 5 37 10 0 6 -4 10 -10 10 -6 0 -10 35 -10 85 0 84 0 85 -25 85
-14 0 -25 -4 -25 -10z"/>
</g>
</svg>
