<?xml version="1.0" standalone="no"?>
<!DOCTYPE svg PUBLIC "-//W3C//DTD SVG 20010904//EN"
 "http://www.w3.org/TR/2001/REC-SVG-20010904/DTD/svg10.dtd">
<svg version="1.0" xmlns="http://www.w3.org/2000/svg"
 width="300.000000pt" height="49.000000pt" viewBox="0 0 300.000000 49.000000"
 preserveAspectRatio="xMidYMid meet">
<metadata>
Created by potrace 1.10, written by Peter Selinger 2001-2011
</metadata>
<g transform="translate(0.000000,49.000000) scale(0.100000,-0.100000)"
fill="#ffffff" stroke="none">
<path d="M120 377 c-14 -8 -24 -19 -22 -26 1 -7 -2 -10 -7 -7 -15 10 -34 -23
-35 -63 -2 -80 46 -121 141 -121 54 0 61 2 71 25 6 14 8 25 3 25 -5 0 -11 -6
-14 -14 -9 -23 -62 -29 -100 -11 -77 36 -77 157 0 186 34 13 101 1 106 -20 3
-9 5 -4 6 12 1 27 0 27 -61 27 -35 0 -74 -6 -88 -13z m-38 -74 c-3 -16 -7 -22
-10 -15 -4 13 4 42 11 42 2 0 2 -12 -1 -27z m13 -95 c3 -7 -1 -4 -9 6 -9 11
-16 29 -15 40 1 17 2 16 9 -6 4 -14 11 -32 15 -40z"/>
<path d="M352 370 c-22 -14 -32 -26 -28 -36 3 -8 2 -13 -3 -10 -12 8 -21 -18
-21 -61 0 -28 8 -43 36 -69 31 -30 42 -34 89 -34 42 0 60 5 83 25 63 53 63
127 1 180 -39 32 -109 34 -157 5z m133 -15 c21 -20 25 -34 25 -80 0 -46 -4
-60 -25 -80 -31 -32 -75 -32 -112 -1 -25 21 -28 31 -28 81 0 50 3 60 28 81 37
31 81 31 112 -1z m-168 -67 c-3 -8 -6 -5 -6 6 -1 11 2 17 5 13 3 -3 4 -12 1
-19z m215 -36 c-8 -24 -9 -23 -9 17 0 32 2 39 9 27 6 -10 6 -27 0 -44z m-215
-4 c-3 -8 -6 -5 -6 6 -1 11 2 17 5 13 3 -3 4 -12 1 -19z"/>
<path d="M606 352 c13 -19 24 -39 24 -44 0 -5 5 -6 12 -2 7 4 8 3 4 -5 -8 -12
44 -151 57 -151 4 0 7 5 7 10 0 22 84 206 99 217 13 10 9 12 -27 13 -27 0 -41
-4 -37 -10 4 -6 11 -8 16 -5 5 4 9 0 9 -7 0 -16 -53 -148 -60 -148 -6 0 -60
131 -60 147 0 6 6 13 13 16 6 2 -9 4 -34 4 l-46 0 23 -35z m28 -8 c3 -8 2 -12
-4 -9 -6 3 -10 10 -10 16 0 14 7 11 14 -7z m60 -140 c3 -8 2 -12 -4 -9 -6 3
-10 10 -10 16 0 14 7 11 14 -7z"/>
<path d="M853 383 c9 -3 17 -5 17 -6 18 -86 8 -203 -18 -210 -9 -3 10 -5 43
-5 33 0 52 2 43 5 -10 2 -18 8 -18 11 0 4 -3 31 -6 60 -9 73 3 140 24 145 9 2
-10 3 -43 4 -33 0 -52 -2 -42 -4z m44 -35 c-3 -8 -6 -5 -6 6 -1 11 2 17 5 13
3 -3 4 -12 1 -19z m0 -170 c-3 -7 -5 -2 -5 12 0 14 2 19 5 13 2 -7 2 -19 0
-25z"/>
<path d="M975 380 c4 -6 11 -8 16 -5 5 4 9 -37 9 -99 0 -101 -1 -105 -22 -109
-13 -2 21 -5 76 -6 l98 -1 34 34 c26 26 34 42 34 70 0 49 -22 89 -57 105 -34
16 -197 25 -188 11z m42 -162 c-2 -29 -3 -6 -3 52 0 58 1 81 3 53 2 -29 2 -77
0 -105z m127 131 c14 -11 26 -17 26 -12 0 4 7 -1 15 -11 16 -21 21 -91 7 -100
-4 -2 -6 13 -4 34 2 21 0 46 -6 55 -7 13 -9 5 -8 -31 0 -27 -3 -58 -8 -68 -8
-15 -6 -18 5 -11 8 5 11 5 6 -1 -5 -5 -12 -9 -15 -9 -4 0 -22 -6 -39 -14 -18
-7 -44 -10 -58 -7 -25 6 -25 8 -25 101 l0 95 39 0 c24 0 48 -8 65 -21z"/>
<path d="M1444 380 c-67 -27 -86 -125 -35 -182 25 -29 35 -32 95 -36 57 -4 69
-2 81 14 22 28 18 40 -6 18 -13 -12 -35 -19 -61 -19 -101 0 -135 151 -43 193
33 15 105 5 105 -14 0 -8 5 -14 11 -14 6 0 8 7 5 16 -3 9 -6 20 -6 25 0 11
-117 11 -146 -1z m-35 -61 c-11 -21 -9 -65 5 -104 5 -13 2 -11 -8 5 -8 14 -15
38 -16 53 0 27 15 67 26 67 2 0 0 -10 -7 -21z"/>
<path d="M1676 371 c-55 -36 -70 -94 -41 -151 43 -83 189 -79 230 6 19 40 19
58 0 98 -30 63 -127 87 -189 47z m121 -6 c31 -21 45 -81 32 -128 -22 -81 -115
-92 -154 -17 -19 37 -19 73 0 110 26 50 79 65 122 35z m-156 -72 c-12 -20 -14
-14 -5 12 4 9 9 14 11 11 3 -2 0 -13 -6 -23z m209 -60 c-11 -17 -11 -17 -6 0
3 10 7 31 7 45 l2 27 4 -27 c2 -15 -1 -35 -7 -45z m-206 21 c3 -8 2 -12 -4 -9
-6 3 -10 10 -10 16 0 14 7 11 14 -7z"/>
<path d="M1942 356 c-33 -30 -37 -40 -37 -81 0 -41 4 -51 37 -81 31 -28 45
-34 83 -34 57 0 100 21 120 60 44 86 -15 170 -120 170 -38 0 -52 -6 -83 -34z
m145 0 c24 -21 28 -31 28 -79 0 -45 -5 -60 -24 -81 -47 -50 -124 -26 -140 44
-23 108 61 180 136 116z m-165 -68 c-8 -8 -9 -4 -5 13 4 13 8 18 11 10 2 -7
-1 -18 -6 -23z m215 -30 c-2 -13 -4 -5 -4 17 -1 22 1 32 4 23 2 -10 2 -28 0
-40z m-207 -13 c0 -8 -2 -15 -4 -15 -2 0 -6 7 -10 15 -3 8 -1 15 4 15 6 0 10
-7 10 -15z"/>
<path d="M2186 379 c3 -5 10 -7 15 -4 5 4 9 -10 9 -30 0 -22 4 -34 10 -30 6 4
9 -22 8 -72 -1 -73 -2 -75 -8 -28 l-7 50 -1 -47 c-2 -35 -6 -48 -19 -51 -10
-3 9 -5 42 -5 45 -1 54 1 38 8 -19 8 -23 17 -23 55 0 25 4 45 9 45 5 0 26 -19
46 -42 20 -24 34 -36 29 -28 -4 8 -16 26 -28 39 -12 13 -16 21 -9 17 6 -3 26
-25 45 -49 18 -23 25 -36 16 -29 -13 10 -17 10 -22 -3 -4 -12 4 -15 47 -14 38
0 47 2 31 9 -11 4 -44 34 -72 67 l-51 58 36 37 c21 21 43 38 49 38 7 0 16 5
19 10 4 6 -10 10 -37 9 -24 -1 -35 -3 -24 -6 16 -4 12 -11 -25 -49 -49 -50
-59 -54 -59 -21 0 38 11 66 29 70 9 2 -10 4 -42 4 -33 1 -55 -3 -51 -8z m41
-41 c-3 -7 -5 -2 -5 12 0 14 2 19 5 13 2 -7 2 -19 0 -25z"/>
<path d="M2463 379 c14 -8 17 -25 17 -109 0 -85 -2 -99 -17 -103 -10 -3 7 -5
37 -5 30 0 47 2 38 5 -16 4 -18 18 -18 103 0 80 3 101 16 108 10 6 -2 9 -38
10 -40 1 -49 -2 -35 -9z m34 -161 c-2 -29 -3 -6 -3 52 0 58 1 81 3 53 2 -29 2
-77 0 -105z"/>
<path d="M2588 378 c21 -10 22 -17 22 -109 0 -93 -1 -98 -22 -102 -13 -2 2 -4
32 -4 30 0 45 2 32 4 -22 4 -23 8 -21 93 1 48 -1 93 -5 99 -28 45 68 -51 118
-118 10 -14 -9 3 -43 39 -51 53 -55 56 -22 15 22 -27 61 -72 86 -100 l45 -50
0 117 c0 113 1 117 23 121 12 2 0 4 -28 4 -27 1 -42 -1 -32 -4 14 -4 17 -17
17 -86 0 -44 -4 -77 -8 -71 -125 146 -141 161 -179 162 -34 0 -36 -1 -15 -10z
m193 -175 c13 -16 12 -17 -3 -4 -10 7 -18 15 -18 17 0 8 8 3 21 -13z"/>
</g>
</svg>

